<svg width="110" height="110" viewBox="0 0 110 110" fill="none" xmlns="http://www.w3.org/2000/svg">
<rect width="110" height="110" fill="#FAFAFA"/>
<path fill-rule="evenodd" clip-rule="evenodd" d="M3 3H103V66.5V71.5V76.5V81.5H81.5L80.1667 76.5L78.8333 71.5L77.5 66.5V71.5V76.5V81.5V103H3V3Z" fill="#D9D9D9"/>
<path d="M81.5 81.5H103V3L107 7V66.5H106V71.5H105V76.5H104V82.5H81.5V107H7L3 103H77.5V76.5V71.5V66.5L78.8333 71.5L80.1667 76.5L81.5 81.5Z" fill="#686964" fill-opacity="0.5"/>
<path d="M77.5 81.5H81.5H103M80.5 76.5H103M79 71.5H103M77.5 66.5H103" stroke="#FAFAFA" stroke-width="0.2"/>
<path d="M80.5 76.5H77.5M79 71.5H77.5" stroke="#FAFAFA" stroke-width="0.2"/>
<path d="M53 55.5V68H48H43H38H33H28H23H8.5V10H66.5V55.5H53Z" fill="#D9D9D9"/>
<path d="M53 55.5V68H8.5V10H66.5V55.5H53ZM53 55.5H23V68M48 68V55.5M43 68V55.5M38 68V55.5M33 68V55.5M28 68V55.5" stroke="#FAFAFA" stroke-width="0.2"/>
<path d="M66.5 10L74.5 18V63.5H61H54V69.3333H53H48V70.6667H43V72H38V73.3333H33V74.6667H28V76H23H16L8 68H53V63.5L23 55.5H66.5V10Z" fill="#686964" fill-opacity="0.5"/>
<path fill-rule="evenodd" clip-rule="evenodd" d="M50 50.6875H11L15.5073 55.5H48H62V53.9375V25L50 12.5V50.6875ZM53 19.5L57.5 24C62 28.5 62 39.5 56.5 35C56.5 35 53.8156 32.3209 53 31.5V25.5V19.5ZM53 35L57.5 39.5C62 44 62 55 56.5 50.5C56.5 50.5 53.8156 47.8209 53 47V41V35Z" fill="#686964" fill-opacity="0.5"/>
<path d="M15.5073 55.5L23 63.5V62.1667H28V60.8333H33V59.5H38V58.1667H43V57H48V55.5H15.5073Z" fill="#686964" fill-opacity="0.5"/>
<rect x="11.1" y="12.1" width="38.8" height="38.8" fill="#D9D9D9" stroke="#FAFAFA" stroke-width="0.2"/>
</svg>
