<svg width="110" height="110" viewBox="0 0 110 110" fill="none" xmlns="http://www.w3.org/2000/svg">
<rect width="110" height="110" fill="#FAFAFA"/>
<path fill-rule="evenodd" clip-rule="evenodd" d="M3 4H103V67.5V72.5V77.5V82.5H81.5L80.1667 77.5L78.8333 72.5L77.5 67.5V72.5V77.5V82.5V104H3V4Z" fill="#D9D9D9"/>
<path d="M81.5 82.5H103V4L107 8V67.5H106V72.5H105V77.5H104V83.5H81.5V108H7L3 104H77.5V77.5V72.5V67.5L78.8333 72.5L80.1667 77.5L81.5 82.5Z" fill="#686964" fill-opacity="0.5"/>
<path d="M77.5 82.5H81.5H103M80.5 77.5H103M79 72.5H103M77.5 67.5H103" stroke="#FAFAFA" stroke-width="0.2"/>
<path d="M80.5 77.5H77.5M79 72.5H77.5" stroke="#FAFAFA" stroke-width="0.2"/>
<path d="M53 56.5V69H48H43H38H33H28H23H8.5V11H66.5V56.5H53Z" fill="#D9D9D9"/>
<path d="M53 56.5V69H8.5V11H66.5V56.5H53ZM53 56.5H23V69M48 69V56.5M43 69V56.5M38 69V56.5M33 69V56.5M28 69V56.5" stroke="#FAFAFA" stroke-width="0.2"/>
<path d="M66.5 11L74.5 19V64.5H61H54V70.3333H53H48V71.6667H43V73H38V74.3333H33V75.6667H28V77H23H16L8 69H53V64.5L23 56.5H66.5V11Z" fill="#686964" fill-opacity="0.5"/>
<path fill-rule="evenodd" clip-rule="evenodd" d="M50 51.6875H11L15.5073 56.5H48H62V54.9375V26L50 13.5V51.6875ZM53 20.5L57.5 25C62 29.5 62 40.5 56.5 36C56.5 36 53.8156 33.3209 53 32.5V26.5V20.5ZM53 36L57.5 40.5C62 45 62 56 56.5 51.5C56.5 51.5 53.8156 48.8209 53 48V42V36Z" fill="#686964" fill-opacity="0.5"/>
<path d="M15.5073 56.5L23 64.5V63.1667H28V61.8333H33V60.5H38V59.1667H43V58H48V56.5H15.5073Z" fill="#686964" fill-opacity="0.5"/>
<rect x="11.1" y="13.1" width="38.8" height="38.8" fill="#D9D9D9" stroke="#FAFAFA" stroke-width="0.2"/>
<rect x="11.5" y="13.5" width="38" height="38" fill="#D9D9D9" stroke="#D9D9D9"/>
<path d="M12 51H49L30.5 32.5L12 51Z" fill="#5C1900"/>
<path fill-rule="evenodd" clip-rule="evenodd" d="M12 51V14H49L30.5 32.5L12 51Z" fill="#661C00"/>
<path d="M49 51V14L30.5 32.5L49 51Z" fill="#5D1900"/>
<path d="M45.125 47.125V17.875L30.5 32.5L45.125 47.125Z" fill="#6E1E00"/>
<path fill-rule="evenodd" clip-rule="evenodd" d="M15.875 47.125L30.5 32.5L45.125 17.875H15.875V47.125Z" fill="#8A2600"/>
<path d="M15.875 47.125H45.125L30.5 32.5L15.875 47.125Z" fill="#6D1E00"/>
<path fill-rule="evenodd" clip-rule="evenodd" d="M19.1252 43.875V21.125H41.8752L30.5002 32.5L19.1252 43.875Z" fill="#972900"/>
<path d="M41.8752 43.875V21.125L30.5002 32.5L41.8752 43.875Z" fill="#802300"/>
<path d="M19.1252 43.875H41.8752L30.5002 32.5L19.1252 43.875Z" fill="#812300"/>
<path d="M24 26H37V39H24V26Z" fill="#AD3406"/>
</svg>
